<svg width="569" height="144" viewBox="0 0 569 144" fill="none" xmlns="http://www.w3.org/2000/svg">
<path d="M31.8118 35.5265C33.8438 32.4038 38.0224 31.5196 41.1451 33.5515L87.1781 63.5053C90.3008 65.5372 91.185 69.7158 89.1531 72.8385L59.1993 118.872C57.1674 121.994 52.9887 122.878 49.866 120.847L3.83301 90.8927C0.710328 88.8608 -0.173889 84.6822 1.85805 81.5595L31.8118 35.5265Z" fill="#A8269B"/>
<path d="M55.1453 3.8343C57.1772 0.711616 61.3559 -0.17261 64.4785 1.85933L82.3903 13.5145C85.513 15.5465 86.3972 19.7251 84.3653 22.8478L72.7101 40.7595C70.6781 43.8822 66.4995 44.7664 63.3768 42.7345L45.465 31.0793C42.3424 29.0474 41.4581 24.8687 43.4901 21.746L55.1453 3.8343Z" fill="#F57F75"/>
<path d="M74.6579 104.007C76.6898 100.885 80.8685 100 83.9912 102.032L101.903 113.688C105.026 115.72 105.91 119.898 103.878 123.021L92.2227 140.933C90.1907 144.055 86.0121 144.94 82.8894 142.908L64.9777 131.252C61.855 129.22 60.9708 125.042 63.0027 121.919L74.6579 104.007Z" fill="#DADADA"/>
<path d="M142.795 110.671C137.696 110.671 133.131 109.861 129.099 108.24C125.068 106.62 121.649 104.386 118.842 101.54C116.075 98.6551 113.961 95.3349 112.498 91.5799C111.036 87.825 110.305 83.8131 110.305 79.5443V77.2913C110.305 72.5087 110.977 68.1016 112.321 64.0699C113.664 60.0383 115.621 56.5402 118.19 53.5758C120.799 50.5718 124 48.2595 127.795 46.639C131.589 44.9789 135.917 44.1488 140.779 44.1488C145.325 44.1488 149.376 44.8998 152.933 46.4018C156.491 47.8643 159.495 49.9789 161.945 52.7457C164.396 55.473 166.254 58.7734 167.518 62.647C168.823 66.481 169.475 70.7893 169.475 75.5719V83.1609H117.775V71.2439H151.333V69.8209C151.333 67.568 150.918 65.5917 150.088 63.892C149.297 62.1924 148.111 60.8881 146.53 59.979C144.989 59.0304 143.032 58.556 140.661 58.556C138.408 58.556 136.53 59.0304 135.028 59.979C133.526 60.9276 132.321 62.2715 131.412 64.0106C130.542 65.7102 129.91 67.7063 129.514 69.9988C129.119 72.2518 128.921 74.6826 128.921 77.2913V79.5443C128.921 82.0344 129.257 84.3072 129.929 86.3625C130.601 88.4179 131.589 90.1768 132.894 91.6392C134.198 93.1017 135.779 94.2479 137.637 95.078C139.495 95.908 141.609 96.3231 143.981 96.3231C146.906 96.3231 149.692 95.7697 152.34 94.663C154.989 93.5167 157.281 91.738 159.218 89.327L167.874 99.2282C166.57 101.125 164.732 102.963 162.36 104.742C160.028 106.481 157.222 107.904 153.941 109.011C150.661 110.118 146.945 110.671 142.795 110.671Z" fill="url(#paint0_linear_2716_26)"/>
<path d="M215.839 95.1373V18.4175H234.456V109.485H217.736L215.839 95.1373ZM175.878 78.1807V76.9356C175.878 72.0739 176.412 67.647 177.479 63.6549C178.586 59.6232 180.187 56.1647 182.281 53.2793C184.416 50.3544 187.044 48.1014 190.167 46.5204C193.289 44.9394 196.866 44.1488 200.898 44.1488C204.614 44.1488 207.855 44.9789 210.621 46.639C213.388 48.2595 215.74 50.552 217.677 53.5165C219.653 56.4414 221.254 59.8999 222.479 63.892C223.705 67.8446 224.633 72.1332 225.266 76.7577V78.8921C224.673 83.319 223.744 87.4495 222.479 91.2835C221.254 95.1175 219.653 98.497 217.677 101.422C215.74 104.307 213.369 106.58 210.562 108.24C207.795 109.861 204.534 110.671 200.78 110.671C196.748 110.671 193.171 109.861 190.048 108.24C186.965 106.62 184.376 104.347 182.281 101.422C180.187 98.497 178.586 95.0582 177.479 91.1056C176.412 87.153 175.878 82.8447 175.878 78.1807ZM194.376 76.9356V78.1807C194.376 80.7103 194.554 83.0621 194.91 85.236C195.305 87.41 195.938 89.327 196.807 90.9871C197.677 92.6471 198.823 93.9515 200.246 94.9001C201.669 95.8092 203.408 96.2638 205.463 96.2638C208.23 96.2638 210.503 95.6313 212.282 94.3665C214.06 93.0622 215.404 91.2637 216.313 88.9712C217.222 86.6787 217.697 84.0107 217.736 80.9672V74.7419C217.736 72.2122 217.479 69.9395 216.965 67.9237C216.452 65.9079 215.681 64.2082 214.653 62.8248C213.665 61.4414 212.42 60.394 210.918 59.6825C209.416 58.9315 207.637 58.556 205.582 58.556C203.566 58.556 201.847 59.0304 200.424 59.979C199.001 60.8881 197.835 62.1727 196.926 63.8328C196.056 65.4928 195.404 67.4494 194.969 69.7024C194.574 71.9158 194.376 74.3269 194.376 76.9356Z" fill="url(#paint1_linear_2716_26)"/>
<path d="M262.084 45.3346L271.926 63.892L282.065 45.3346H301.511L284.021 76.6391L302.341 109.485H282.776L271.985 89.6827L261.254 109.485H241.63L259.95 76.6391L242.519 45.3346H262.084Z" fill="url(#paint2_linear_2716_26)"/>
<path d="M328.547 45.3346V109.485H309.99V45.3346H328.547ZM308.863 28.7337C308.863 26.046 309.812 23.8523 311.709 22.1527C313.606 20.4135 316.096 19.544 319.179 19.544C322.262 19.544 324.753 20.4135 326.65 22.1527C328.587 23.8523 329.555 26.046 329.555 28.7337C329.555 31.382 328.587 33.5757 326.65 35.3148C324.753 37.0144 322.262 37.8642 319.179 37.8642C316.096 37.8642 313.606 37.0144 311.709 35.3148C309.812 33.5757 308.863 31.382 308.863 28.7337Z" fill="url(#paint3_linear_2716_26)"/>
<path d="M361.393 18.4175V109.485H342.836V18.4175H361.393Z" fill="url(#paint4_linear_2716_26)"/>
<path d="M394.239 45.3346V109.485H375.682V45.3346H394.239ZM374.555 28.7337C374.555 26.046 375.504 23.8523 377.401 22.1527C379.298 20.4135 381.788 19.544 384.871 19.544C387.954 19.544 390.445 20.4135 392.342 22.1527C394.279 23.8523 395.247 26.046 395.247 28.7337C395.247 31.382 394.279 33.5757 392.342 35.3148C390.445 37.0144 387.954 37.8642 384.871 37.8642C381.788 37.8642 379.298 37.0144 377.401 35.3148C375.504 33.5757 374.555 31.382 374.555 28.7337Z" fill="url(#paint5_linear_2716_26)"/>
<path d="M445.228 94.0108V45.3346H463.844V109.485H446.413L445.228 94.0108ZM447.184 80.9079L452.283 80.7894C452.283 85.0977 451.769 89.07 450.741 92.7064C449.753 96.3428 448.251 99.5049 446.235 102.193C444.259 104.88 441.789 106.975 438.824 108.477C435.899 109.94 432.48 110.671 428.567 110.671C425.405 110.671 422.5 110.236 419.852 109.367C417.243 108.458 414.99 107.054 413.093 105.157C411.196 103.22 409.733 100.75 408.706 97.746C407.678 94.7025 407.164 91.0661 407.164 86.8368V45.3346H425.662V86.9554C425.662 88.6155 425.86 90.0384 426.255 91.2242C426.69 92.3705 427.263 93.3191 427.974 94.0701C428.725 94.8211 429.635 95.3744 430.702 95.7302C431.808 96.0859 433.014 96.2638 434.318 96.2638C437.599 96.2638 440.168 95.5918 442.026 94.2479C443.923 92.8645 445.247 91.0266 445.998 88.7341C446.789 86.402 447.184 83.7933 447.184 80.9079Z" fill="url(#paint6_linear_2716_26)"/>
<path d="M494.437 58.7932V109.485H475.939V45.3346H493.311L494.437 58.7932ZM492.066 75.1569L487.382 75.2755C487.382 70.7696 487.915 66.6391 488.983 62.8841C490.089 59.0896 491.69 55.7892 493.785 52.9829C495.88 50.1766 498.469 48.0026 501.552 46.4611C504.674 44.9196 508.271 44.1488 512.343 44.1488C515.188 44.1488 517.777 44.5836 520.109 45.4532C522.441 46.2832 524.437 47.6074 526.098 49.4256C527.797 51.2042 529.101 53.5363 530.011 56.4216C530.92 59.2675 531.374 62.6865 531.374 66.6786V109.485H512.876V68.9316C512.876 66.0857 512.52 63.9316 511.809 62.4691C511.137 60.9671 510.149 59.9395 508.844 59.3861C507.54 58.8327 505.979 58.556 504.161 58.556C502.184 58.556 500.425 58.9908 498.884 59.8604C497.382 60.6904 496.117 61.8565 495.089 63.3584C494.062 64.8604 493.291 66.6193 492.777 68.6352C492.303 70.651 492.066 72.8249 492.066 75.1569ZM529.477 74.2083L523.607 74.6826C523.607 70.3348 524.121 66.3031 525.149 62.5877C526.177 58.8723 527.718 55.6509 529.773 52.9236C531.829 50.1568 534.378 48.0026 537.422 46.4611C540.505 44.9196 544.082 44.1488 548.153 44.1488C551.157 44.1488 553.884 44.5836 556.335 45.4532C558.825 46.3228 560.959 47.7259 562.738 49.6627C564.556 51.5995 565.959 54.1489 566.948 57.311C567.936 60.4335 568.43 64.2675 568.43 68.813V109.485H549.813V68.813C549.813 66.0067 549.457 63.8723 548.746 62.4098C548.074 60.9474 547.086 59.9395 545.781 59.3861C544.517 58.8327 542.995 58.556 541.216 58.556C539.24 58.556 537.521 58.9711 536.058 59.8011C534.596 60.5916 533.37 61.6984 532.382 63.1213C531.394 64.5047 530.663 66.145 530.188 68.0423C529.714 69.9395 529.477 71.9949 529.477 74.2083Z" fill="url(#paint7_linear_2716_26)"/>
<defs>
<linearGradient id="paint0_linear_2716_26" x1="497.369" y1="-13.6248" x2="227.539" y2="131.409" gradientUnits="userSpaceOnUse">
<stop stop-color="#F57F75"/>
<stop offset="1" stop-color="#A8269B"/>
</linearGradient>
<linearGradient id="paint1_linear_2716_26" x1="497.369" y1="-13.6248" x2="227.539" y2="131.409" gradientUnits="userSpaceOnUse">
<stop stop-color="#F57F75"/>
<stop offset="1" stop-color="#A8269B"/>
</linearGradient>
<linearGradient id="paint2_linear_2716_26" x1="497.369" y1="-13.6248" x2="227.539" y2="131.409" gradientUnits="userSpaceOnUse">
<stop stop-color="#F57F75"/>
<stop offset="1" stop-color="#A8269B"/>
</linearGradient>
<linearGradient id="paint3_linear_2716_26" x1="497.369" y1="-13.6248" x2="227.539" y2="131.409" gradientUnits="userSpaceOnUse">
<stop stop-color="#F57F75"/>
<stop offset="1" stop-color="#A8269B"/>
</linearGradient>
<linearGradient id="paint4_linear_2716_26" x1="497.369" y1="-13.6248" x2="227.539" y2="131.409" gradientUnits="userSpaceOnUse">
<stop stop-color="#F57F75"/>
<stop offset="1" stop-color="#A8269B"/>
</linearGradient>
<linearGradient id="paint5_linear_2716_26" x1="497.369" y1="-13.6248" x2="227.539" y2="131.409" gradientUnits="userSpaceOnUse">
<stop stop-color="#F57F75"/>
<stop offset="1" stop-color="#A8269B"/>
</linearGradient>
<linearGradient id="paint6_linear_2716_26" x1="497.369" y1="-13.6248" x2="227.539" y2="131.409" gradientUnits="userSpaceOnUse">
<stop stop-color="#F57F75"/>
<stop offset="1" stop-color="#A8269B"/>
</linearGradient>
<linearGradient id="paint7_linear_2716_26" x1="497.369" y1="-13.6248" x2="227.539" y2="131.409" gradientUnits="userSpaceOnUse">
<stop stop-color="#F57F75"/>
<stop offset="1" stop-color="#A8269B"/>
</linearGradient>
</defs>
</svg>
