<svg width="213" height="213" viewBox="0 0 213 213" fill="none" xmlns="http://www.w3.org/2000/svg">
<path d="M75.9881 52.4771C78.9326 47.9424 84.9877 46.6583 89.5127 49.6091L156.218 93.1073C160.743 96.058 162.024 102.126 159.08 106.661L115.675 173.509C112.73 178.044 106.675 179.328 102.15 176.377L35.4449 132.879C30.9199 129.928 29.6386 123.86 32.583 119.325L75.9881 52.4771Z" fill="#A8269B"/>
<path d="M109.8 6.4544C112.744 1.91971 118.8 0.635654 123.325 3.58639L149.28 20.5118C153.805 23.4626 155.086 29.5307 152.142 34.0654L135.253 60.0764C132.308 64.6111 126.253 65.8952 121.728 62.9444L95.7726 46.019C91.2476 43.0683 89.9663 37.0001 92.9108 32.4654L109.8 6.4544Z" fill="#F57F75"/>
<path d="M138.075 151.924C141.02 147.389 147.075 146.105 151.6 149.056L177.555 165.981C182.08 168.932 183.361 175 180.417 179.535L163.528 205.546C160.583 210.08 154.528 211.364 150.003 208.414L124.048 191.488C119.523 188.537 118.242 182.469 121.186 177.935L138.075 151.924Z" fill="#DADADA"/>
</svg>
